HIERARCHY
ROOT Hips
{
	OFFSET 0.000000 0.000000 0.000000
	CHANNELS 6 Xposition Yposition Zposition Zrotation Yrotation Xrotation 
	JOINT LHipJoint
	{
		OFFSET 0.000000 0.000000 0.000000
		CHANNELS 3 Zrotation Yrotation Xrotation
		JOINT LeftUpLeg
		{
			OFFSET 1.363060 -1.794630 0.839290
			CHANNELS 3 Zrotation Yrotation Xrotation
			JOINT LeftLeg
			{
				OFFSET 2.448110 -6.726130 0.000000
				CHANNELS 3 Zrotation Yrotation Xrotation
				JOINT LeftFoot
				{
					OFFSET 2.562200 -7.039590 0.000000
					CHANNELS 3 Zrotation Yrotation Xrotation
					JOINT LeftToeBase
					{
						OFFSET 0.157640 -0.433110 2.322550
						CHANNELS 3 Zrotation Yrotation Xrotation
						End Site
						{
							OFFSET 0.000000 0.000000 0.000000
						}
					}
				}
			}
		}
	}
	JOINT RHipJoint
	{
		OFFSET 0.000000 0.000000 0.000000
		CHANNELS 3 Zrotation Yrotation Xrotation
		JOINT RightUpLeg
		{
			OFFSET -1.305520 -1.794630 0.839290
			CHANNELS 3 Zrotation Yrotation Xrotation
			JOINT RightLeg
			{
				OFFSET -2.542530 -6.985550 0.000000
				CHANNELS 3 Zrotation Yrotation Xrotation
				JOINT RightFoot
				{
					OFFSET -2.568260 -7.056230 0.000000
					CHANNELS 3 Zrotation Yrotation Xrotation
					JOINT RightToeBase
					{
						OFFSET -0.164730 -0.452590 2.363150
						CHANNELS 3 Zrotation Yrotation Xrotation
						End Site
						{
							OFFSET 0.000000 0.000000 0.000000
						}
					}
				}
			}
		}
	}
}
MOTION
Frames: 19
Frame Time: 0.008333
1.325967 15.957396 1.502891 12.032534 -79.448716 34.417587 -8.380983 -1.067306 2.768719 -13.710956 -12.785428 -74.678990 -2.348996 2.276512 43.181827 2.100800 5.021540 -15.867358 -0.604901 -0.000000 -31.994400 8.659343 2.245819 2.058377 1.990302 4.117849 -80.370955 -1.610839 -5.354980 67.615824 -4.479944 -19.309909 -0.622279 -4.068000 -0.000000 -66.041300
1.319095 15.996439 1.524131 11.140600 -79.196270 34.624791 -8.431622 -1.065710 2.689540 -13.817548 -12.412980 -73.615088 -2.373166 2.220969 42.737273 2.031715 4.810681 -15.725328 -0.583300 -0.000001 -32.162000 8.650900 2.340846 1.977083 2.076943 3.991274 -80.566935 -1.782762 -5.424538 68.953064 -4.444550 -19.686797 1.641784 -4.805100 -0.000001 -65.597500
1.313479 16.036855 1.546974 10.056696 -78.992141 35.029465 -8.486788 -1.070727 2.610687 -13.854982 -12.016001 -72.568395 -2.388272 2.161364 42.275003 1.974296 4.651856 -15.580602 -0.563900 0.000000 -32.336100 8.630339 2.430949 1.895926 2.226183 3.890624 -80.827023 -1.938475 -5.491093 70.252402 -4.396045 -19.977857 4.040605 -5.570600 0.000000 -65.364900
1.309244 16.078599 1.571480 8.777585 -78.840726 35.638863 -8.546115 -1.083792 2.532978 -13.818524 -11.600445 -71.544363 -2.393029 2.097381 41.796377 1.930630 4.555263 -15.434765 -0.547300 0.000000 -32.503400 8.597997 2.514763 1.817386 2.427700 3.821238 -81.154405 -2.076272 -5.554590 71.498591 -4.326009 -20.129598 6.567352 -6.334300 -0.000000 -65.376500
1.306244 16.121422 1.597237 7.319888 -78.748389 36.446059 -8.608116 -1.106025 2.455764 -13.712513 -11.169762 -70.548524 -2.387729 2.028965 41.300450 1.901882 4.527838 -15.285554 -0.533400 -0.000000 -32.676400 8.555500 2.591064 1.747702 2.659032 3.795596 -81.557583 -2.196053 -5.614060 72.675988 -4.228543 -20.092813 9.215163 -7.057800 0.000000 -65.681800
1.304457 16.165242 1.624016 5.681606 -78.718937 37.459021 -8.671736 -1.138031 2.378525 -13.540849 -10.726662 -69.584573 -2.372648 1.956246 40.786572 1.888635 4.573534 -15.131689 -0.522000 -0.000001 -32.857600 8.504370 2.658859 1.690989 2.903756 3.821272 -82.042190 -2.297474 -5.669757 73.769476 -4.098927 -19.815192 11.949062 -7.684800 0.000000 -66.234000
1.303963 16.209918 1.651763 3.841383 -78.754418 38.701605 -8.736341 -1.180100 2.300445 -13.307656 -10.271154 -68.656849 -2.348477 1.880001 40.256487 1.890493 4.690506 -14.974878 -0.513100 -0.000000 -33.021400 8.445571 2.717491 1.650441 3.150018 3.905426 -82.612505 -2.380890 -5.722242 74.764062 -3.935771 -19.256116 14.713141 -8.152000 -0.000000 -66.963800
1.304613 16.255217 1.680224 1.788683 -78.855348 40.191072 -8.800712 -1.231886 2.220184 -13.021478 -9.802917 -67.766840 -2.316555 1.800770 39.709238 1.906583 4.875575 -14.812961 -0.505700 0.000000 -33.181200 8.381074 2.766725 1.628931 3.384595 4.052302 -83.274204 -2.447940 -5.772775 75.648708 -3.740524 -18.389163 17.439399 -8.399000 -0.000000 -67.785100
1.306412 16.300957 1.709382 -0.506449 -79.018829 41.959478 -8.864245 -1.292782 2.136370 -12.689802 -9.320307 -66.915299 -2.278221 1.719557 39.146335 1.935408 5.121634 -14.646543 -0.499200 -0.000000 -33.338400 8.311901 2.806857 1.626833 3.602389 4.261658 -84.031305 -2.500881 -5.823354 76.415637 -3.517220 -17.208888 20.047355 -8.378400 -0.000000 -68.555700
1.309295 16.346847 1.739283 -3.092295 -79.238668 44.057453 -8.927193 -1.361829 2.047816 -12.319731 -8.818222 -66.106206 -2.235373 1.638229 38.573133 1.974385 5.414989 -14.479179 -0.493000 -0.000001 -33.459100 8.237295 2.838493 1.644394 3.803699 4.535297 -84.885261 -2.541829 -5.874588 77.055453 -3.275552 -15.759234 22.465627 -8.083300 -0.000000 -69.355100
1.313300 16.392613 1.769993 -5.999859 -79.505283 46.515926 -8.989340 -1.437921 1.953492 -11.920245 -8.297047 -65.337616 -2.189504 1.557827 37.990873 2.021528 5.746222 -14.310441 -0.486300 -0.000000 -33.562300 8.157188 2.862842 1.678386 3.991319 4.863723 -85.838656 -2.573546 -5.929184 77.570124 -3.022903 -14.090537 24.618828 -7.525400 0.000000 -70.040300
1.318437 16.437910 1.801663 -9.268379 -79.806030 49.374183 -9.051477 -1.520002 1.852783 -11.499283 -7.756143 -64.610642 -2.142242 1.480041 37.405074 2.074456 6.102688 -14.143525 -0.478699 -0.000000 -33.642200 8.069798 2.881008 1.725153 4.172415 5.238019 -86.891836 -2.597955 -5.988606 77.962162 -2.769083 -12.292162 26.453611 -6.758600 -0.000000 -70.614400
1.324629 16.482322 1.834438 -12.934700 -80.124942 52.671007 -9.115319 -1.607359 1.745572 -11.064078 -7.193496 -63.931267 -2.095492 1.407118 36.824129 2.130053 6.467973 -13.981523 -0.469900 0.000000 -33.682100 7.971760 2.893301 1.782405 4.354498 5.653836 -88.045031 -2.615534 -6.052449 78.231140 -2.525312 -10.483744 27.950643 -5.872599 -0.000000 -71.259200
1.331848 16.525395 1.868373 -17.003494 -80.444175 56.413025 -9.182777 -1.699561 1.632495 -10.622596 -6.612246 -63.304265 -2.050680 1.340766 36.255841 2.185969 6.829600 -13.826634 -0.459901 -0.000000 -33.685400 7.860348 2.899135 1.846631 4.544755 6.100850 -89.299246 -2.626746 -6.121516 78.384028 -2.298758 -8.769978 29.098378 -4.955700 -0.000000 -71.957200
1.340093 16.566709 1.903662 -21.440074 -80.746170 60.567053 -9.255493 -1.796931 1.514378 -10.182258 -6.021679 -62.730445 -2.008396 1.281416 35.703652 2.241197 7.182182 -13.679560 -0.448600 0.000000 -33.664800 7.733422 2.897052 1.913744 4.746846 6.565104 -90.651992 -2.630698 -6.196534 78.423506 -2.094098 -7.238755 29.908122 -4.089999 0.000000 -72.753300
1.349255 16.605662 1.940079 -26.186098 -81.012993 65.080136 -9.335429 -1.900086 1.392626 -9.751379 -5.424948 -62.225508 -1.970180 1.231141 35.181796 2.292868 7.509977 -13.542895 -0.436200 0.000000 -33.610200 7.589235 2.883330 1.984441 4.960876 7.043848 -92.107484 -2.626775 -6.277541 78.353760 -1.914719 -5.961515 30.398934 -3.344501 0.000000 -73.583200
1.359242 16.641847 1.977705 -31.129548 -81.231818 69.845436 -9.422515 -2.010086 1.268351 -9.335802 -4.836010 -61.791592 -1.935693 1.189057 34.693384 2.341426 7.814372 -13.417470 -0.423200 0.000000 -33.540600 7.428367 2.854026 2.057841 5.181719 7.526368 -93.659511 -2.611267 -6.364302 78.161090 -1.761475 -4.973256 30.621660 -2.762000 -0.000001 -74.683300
1.369991 16.674713 2.016117 -36.140925 -81.393176 74.738496 -9.515598 -2.127343 1.142808 -8.943285 -4.261089 -61.444555 -1.905838 1.156046 34.250900 2.385150 8.085620 -13.304174 -0.409500 0.000000 -33.451600 7.254052 2.804640 2.137404 5.398530 8.011410 -95.311223 -2.582999 -6.457800 77.844651 -1.631017 -4.265060 30.594703 -2.348500 -0.000001 -75.754800
1.381398 16.703806 2.054995 -41.082131 -81.494991 79.626734 -9.611428 -2.251759 1.016796 -8.578967 -3.710549 -61.193324 -1.880568 1.131619 33.861479 2.424397 8.324126 -13.204604 -0.395800 -0.000000 -33.351100 7.071589 2.731613 2.226808 5.596116 8.496124 -97.057791 -2.537889 -6.557744 77.384888 -1.518858 -3.801165 30.363182 -2.089200 -0.000000 -76.802200
